<svg data-v-fde0c5aa="" xmlns="http://www.w3.org/2000/svg" viewBox="0 0 300 300" class="iconLeftSlogan"><!----><defs data-v-fde0c5aa=""><!----></defs><rect data-v-fde0c5aa="" fill="transparent" x="0" y="0" width="300px" height="300px" class="logo-background-square"></rect><defs data-v-fde0c5aa=""><!----></defs><g data-v-fde0c5aa="" id="f6fe3911-a799-42f2-9e37-1d1081835ff7" fill="#000000" transform="matrix(2.585675611073843,0,0,2.585675611073843,131.93149094897583,111.23436067622282)"><path d="M-0.07 14.81L-0.07 14.81Q-0.07 14.55 0.70 12.83Q1.47 11.12 2.48 8.90Q3.50 6.68 3.86 5.73L3.86 5.73L4.17 4.93Q3.95 4.59 3.68 4.33L3.68 4.33Q4.12 4.16 4.51 4.16L4.51 4.16Q5.39 4.16 5.88 5.28L5.88 5.28Q6.19 5.99 6.71 8.47L6.71 8.47Q6.72 8.50 6.75 8.65Q6.78 8.81 7.04 10.07Q7.29 11.34 7.39 11.75Q7.49 12.17 7.73 13.02L7.73 13.02Q8.11 14.46 8.68 15.26L8.68 15.26Q8.02 15.65 7.59 15.65Q7.17 15.65 6.98 15.39Q6.79 15.13 6.63 14.60Q6.47 14.06 5.95 11.59L5.95 11.59Q5.64 12.07 4.72 12.10L4.72 12.10L2.23 12.19Q1.43 14.35 1.06 15.89L1.06 15.89Q-0.07 15.41-0.07 14.81ZM4.66 6.17L4.66 6.17Q3.05 10.00 2.60 11.14L2.60 11.14L5.85 11.14Q5.19 7.94 4.66 6.17ZM11.26 12.60Q11.26 13.40 11.56 13.90Q11.87 14.41 12.52 14.41Q13.17 14.41 13.71 13.83Q14.25 13.24 14.58 12.26Q14.91 11.27 15.15 10.16Q15.40 9.04 15.51 7.78L15.51 7.78Q15.72 5.45 15.72 4.07Q15.72 2.70 15.61 2.03L15.61 2.03Q17.05 2.49 17.05 4.93L17.05 4.93Q17.05 5.92 16.58 8.93Q16.11 11.94 16.11 13.33Q16.11 14.71 16.24 15.68L16.24 15.68Q15.44 15.41 15.15 14.73Q14.85 14.04 14.85 12.98L14.85 12.98Q14.42 14.18 13.57 14.88Q12.71 15.58 11.79 15.58Q10.88 15.58 10.31 14.88Q9.74 14.17 9.74 12.80L9.74 12.80Q9.74 10.51 10.94 9.04Q12.14 7.57 13.92 7.57L13.92 7.57Q14.42 7.57 14.99 7.73L14.99 7.73Q14.04 7.88 13.29 8.42Q12.53 8.96 12.11 9.69L12.11 9.69Q11.26 11.17 11.26 12.60L11.26 12.60ZM22.32 8.08L22.32 8.08Q21.48 8.08 20.89 9.04Q20.31 10.01 20.12 11.31L20.12 11.31L20.51 11.31Q21.25 11.31 21.80 11.10Q22.34 10.89 22.64 10.56L22.64 10.56Q23.20 9.91 23.20 9.10L23.20 9.10Q23.20 8.64 22.98 8.36Q22.76 8.08 22.32 8.08ZM24.29 13.75Q23.65 14.80 22.88 15.22Q22.11 15.64 21.09 15.64Q20.08 15.64 19.32 14.74Q18.56 13.85 18.56 12.22L18.56 12.22Q18.56 10.37 19.56 8.92L19.56 8.92Q20.05 8.22 20.84 7.78Q21.63 7.35 22.58 7.35L22.58 7.35Q24.68 7.35 24.68 9.38L24.68 9.38Q24.68 10.60 23.74 11.29Q22.79 11.98 21.55 11.98L21.55 11.98Q20.72 11.98 20.06 11.83L20.06 11.83Q20.05 11.97 20.05 12.26L20.05 12.26Q20.05 14.74 21.52 14.74L21.52 14.74Q22.90 14.74 23.77 13.37L23.77 13.37Q24.29 13.44 24.29 13.75L24.29 13.75ZM32.84 9.34L32.84 9.34Q32.84 9.98 32.57 11.61Q32.30 13.24 32.30 13.99Q32.30 14.73 32.48 15.06Q32.66 15.39 33.10 15.62L33.10 15.62Q32.91 15.64 32.58 15.64L32.58 15.64Q31.63 15.64 31.23 15.28Q30.83 14.92 30.83 14L30.83 14Q30.83 13.48 31.11 11.91Q31.39 10.33 31.39 9.59L31.39 9.59Q31.39 8.67 30.83 8.67L30.83 8.67Q29.93 8.67 28.97 10.25Q28.01 11.83 28.01 14.06L28.01 14.06Q28.01 14.94 28.10 15.43L28.10 15.43Q27.73 15.46 27.66 15.46L27.66 15.46Q26.43 15.46 26.43 14.25L26.43 14.25Q26.43 13.97 26.73 12.10Q27.02 10.22 27.02 9.11Q27.02 7.99 26.78 7.06L26.78 7.06Q27.61 7.38 27.94 7.97Q28.27 8.57 28.27 9.33Q28.27 10.09 28.10 11.10L28.10 11.10Q28.56 9.52 29.55 8.44Q30.53 7.35 31.39 7.35L31.39 7.35Q32.84 7.35 32.84 9.34ZM36.86 15.64Q36.06 15.36 35.75 14.78Q35.43 14.20 35.43 13.37Q35.43 12.54 35.66 11.00Q35.88 9.46 35.88 8.61Q35.88 7.76 35.80 7.29L35.80 7.29Q36.05 7.27 36.20 7.27L36.20 7.27Q36.83 7.27 37.11 7.55Q37.39 7.83 37.39 8.47L37.39 8.47Q37.39 8.68 37.05 10.68Q36.71 12.67 36.70 13.96Q36.69 15.26 36.86 15.64L36.86 15.64ZM37.07 5.88L37.07 5.88Q35.90 5.88 35.90 5.08L35.90 5.08Q35.90 4.80 36.11 4.30L36.11 4.30Q36.41 4.24 36.64 4.24L36.64 4.24Q37.81 4.24 37.81 5.04L37.81 5.04Q37.81 5.32 37.60 5.82L37.60 5.82Q37.30 5.88 37.07 5.88ZM45.44 8.32L45.44 8.32Q45.44 8.81 45.02 9.67Q44.60 10.54 44.00 11.58Q43.40 12.61 42.80 13.78Q42.20 14.95 41.78 16.35Q41.36 17.74 41.36 19.01L41.36 19.01Q41.36 19.64 41.45 20.22L41.45 20.22Q40.56 20.01 40.24 19.59Q39.93 19.18 39.93 18.62L39.93 18.62Q39.93 17.82 40.91 15.58L40.91 15.58Q40.70 14.71 40.39 12.86Q40.08 11.00 39.77 9.63Q39.45 8.26 39.05 7.59L39.05 7.59Q39.58 7.22 39.96 7.22L39.96 7.22Q40.68 7.22 40.95 7.97Q41.22 8.72 41.42 10.84Q41.62 12.95 41.83 13.94L41.83 13.94Q44.58 8.78 44.58 7.04L44.58 7.04Q45.44 7.63 45.44 8.32ZM48.58 15.64Q47.78 15.36 47.47 14.78Q47.15 14.20 47.15 13.37Q47.15 12.54 47.38 11.00Q47.60 9.46 47.60 8.61Q47.60 7.76 47.52 7.29L47.52 7.29Q47.77 7.27 47.92 7.27L47.92 7.27Q48.55 7.27 48.83 7.55Q49.11 7.83 49.11 8.47L49.11 8.47Q49.11 8.68 48.77 10.68Q48.43 12.67 48.42 13.96Q48.41 15.26 48.58 15.64L48.58 15.64ZM48.79 5.88L48.79 5.88Q47.61 5.88 47.61 5.08L47.61 5.08Q47.61 4.80 47.82 4.30L47.82 4.30Q48.13 4.24 48.36 4.24L48.36 4.24Q49.53 4.24 49.53 5.04L49.53 5.04Q49.53 5.32 49.32 5.82L49.32 5.82Q49.01 5.88 48.79 5.88Z"></path></g><defs data-v-fde0c5aa=""><linearGradient data-v-fde0c5aa="" gradientTransform="rotate(25)" id="d6300d79-68cc-4569-841e-3b33060de97c" x1="0%" y1="0%" x2="100%" y2="0%"><stop data-v-fde0c5aa="" offset="0%" stop-color="#3E6E81" stop-opacity="1"></stop><stop data-v-fde0c5aa="" offset="100%" stop-color="#4587A1" stop-opacity="1"></stop></linearGradient></defs><g data-v-fde0c5aa="" id="352c91e5-dc72-44f7-8a26-b020784ca03c" stroke="none" fill="url(#d6300d79-68cc-4569-841e-3b33060de97c)" transform="matrix(2.4609529261301653,0,0,2.4609529261301653,40,110.62475318191736)"><path d="M15.965 16.258l.707-.707 10.39 10.39-.707.707z"></path><path d="M4.935 26.357L26.018 5.274l.707.707L5.642 27.065z"></path><path d="M31 1v4.194h-4.194V1H31m1-1h-6.194v6.194H32V0zM31 26.806V31h-4.194v-4.194H31m1-1h-6.194V32H32v-6.194zM5.194 26.806V31H1v-4.194h4.194m1-1H0V32h6.194v-6.194z"></path></g><defs data-v-fde0c5aa=""><!----></defs><g data-v-fde0c5aa="" id="7921bc76-398e-4ece-9c5e-a46dc9eb2052" fill="#000000" transform="matrix(0.6155779428729409,0,0,0.6155779428729409,130.85174981608836,171.27601413063985)"><path d="M4.37 3.78Q6.58 3.78 7.78 4.95Q8.97 6.12 8.97 8.33L8.97 8.33Q8.97 10.60 7.78 11.81Q6.58 13.02 4.37 13.02L4.37 13.02L1.46 13.02L1.46 3.78L4.37 3.78ZM4.42 12.38Q6.27 12.38 7.26 11.33Q8.25 10.29 8.25 8.33L8.25 8.33Q8.25 6.45 7.26 5.44Q6.27 4.42 4.42 4.42L4.42 4.42L2.16 4.42L2.16 12.38L4.42 12.38ZM24.36 13.02L23.20 10.12L18.77 10.12L17.63 13.02L16.88 13.02L20.58 3.78L21.41 3.78L25.10 13.02L24.36 13.02ZM19.04 9.48L22.95 9.48L21.34 5.45L21 4.47L20.99 4.47L20.65 5.42L19.04 9.48ZM38.79 3.78L38.79 4.42L35.42 4.42L35.42 13.02L34.72 13.02L34.72 4.42L31.35 4.42L31.35 3.78L38.79 3.78ZM52.51 13.02L51.35 10.12L46.93 10.12L45.78 13.02L45.04 13.02L48.73 3.78L49.56 3.78L53.26 13.02L52.51 13.02ZM47.19 9.48L51.10 9.48L49.49 5.45L49.15 4.47L49.14 4.47L48.80 5.42L47.19 9.48ZM78.85 3.78L78.85 4.42L75.47 4.42L75.47 13.02L74.77 13.02L74.77 4.42L71.40 4.42L71.40 3.78L78.85 3.78ZM90.79 3.64Q92.09 3.64 93.05 4.22Q94.01 4.80 94.53 5.87Q95.05 6.94 95.05 8.40L95.05 8.40Q95.05 9.86 94.53 10.93Q94.01 12.00 93.05 12.58Q92.09 13.16 90.79 13.16L90.79 13.16Q89.49 13.16 88.53 12.58Q87.57 12.00 87.05 10.93Q86.53 9.86 86.53 8.40L86.53 8.40Q86.53 6.94 87.05 5.87Q87.57 4.80 88.53 4.22Q89.49 3.64 90.79 3.64L90.79 3.64ZM90.79 4.28Q89.71 4.28 88.92 4.78Q88.13 5.28 87.70 6.21Q87.28 7.14 87.28 8.40L87.28 8.40Q87.28 9.66 87.70 10.59Q88.13 11.52 88.92 12.02Q89.71 12.52 90.79 12.52L90.79 12.52Q91.87 12.52 92.67 12.02Q93.46 11.52 93.89 10.59Q94.32 9.66 94.32 8.40L94.32 8.40Q94.32 7.14 93.89 6.21Q93.46 5.28 92.67 4.78Q91.87 4.28 90.79 4.28L90.79 4.28ZM116.45 3.78L116.45 13.02L115.75 13.02L115.75 3.78L116.45 3.78ZM133.46 3.78L133.46 13.02L132.59 13.02L127.69 5.77L127.01 4.54L126.99 4.54L127.04 5.70L127.04 13.02L126.36 13.02L126.36 3.78L127.25 3.78L132.13 11.02L132.83 12.26L132.80 11.10L132.80 3.78L133.46 3.78ZM146.23 3.64Q148.83 3.64 149.72 5.68L149.72 5.68L149.11 6.17Q148.76 5.18 148.07 4.73Q147.38 4.28 146.24 4.28L146.24 4.28Q145.43 4.28 144.83 4.54Q144.23 4.79 143.91 5.22Q143.60 5.66 143.60 6.20L143.60 6.20Q143.60 6.73 143.86 7.08Q144.13 7.43 144.77 7.68Q145.40 7.92 146.52 8.12L146.52 8.12Q148.33 8.43 149.09 9.02Q149.84 9.60 149.84 10.64L149.84 10.64Q149.84 11.38 149.41 11.96Q148.97 12.53 148.18 12.84Q147.39 13.16 146.37 13.16L146.37 13.16Q144.91 13.16 143.91 12.58Q142.91 12.00 142.55 10.95L142.55 10.95L143.16 10.47Q143.44 11.47 144.29 11.99Q145.14 12.52 146.38 12.52L146.38 12.52Q147.59 12.52 148.35 12.03Q149.11 11.54 149.11 10.68L149.11 10.68Q149.11 9.94 148.49 9.51Q147.87 9.07 146.33 8.81L146.33 8.81Q145.03 8.58 144.27 8.26Q143.51 7.94 143.19 7.46Q142.86 6.99 142.86 6.27L142.86 6.27Q142.86 5.56 143.27 4.96Q143.68 4.35 144.44 4.00Q145.21 3.64 146.23 3.64L146.23 3.64ZM159.74 3.78L159.74 13.02L159.04 13.02L159.04 3.78L159.74 3.78ZM173.21 8.50L177.00 8.50L177.00 13.02L176.44 13.02L176.41 11.41Q176.04 12.25 175.23 12.71Q174.43 13.16 173.24 13.16L173.24 13.16Q171.98 13.16 171.03 12.58Q170.09 12.00 169.57 10.92Q169.06 9.84 169.06 8.40L169.06 8.40Q169.06 6.96 169.59 5.88Q170.11 4.80 171.07 4.22Q172.02 3.64 173.28 3.64L173.28 3.64Q174.69 3.64 175.59 4.20Q176.48 4.76 176.93 5.91L176.93 5.91L176.29 6.24Q175.97 5.28 175.20 4.78Q174.44 4.28 173.28 4.28L173.28 4.28Q172.24 4.28 171.46 4.78Q170.67 5.28 170.24 6.21Q169.81 7.14 169.81 8.40L169.81 8.40Q169.81 10.32 170.72 11.42Q171.64 12.52 173.26 12.52L173.26 12.52Q174.27 12.52 174.97 12.12Q175.67 11.72 176.01 11.07Q176.34 10.42 176.34 9.67L176.34 9.67L176.34 9.16L173.21 9.16L173.21 8.50ZM192.89 3.78L193.59 3.78L193.59 13.02L192.89 13.02L192.89 8.65L187.18 8.65L187.18 13.02L186.48 13.02L186.48 3.78L187.18 3.78L187.18 7.99L192.89 7.99L192.89 3.78ZM209.80 3.78L209.80 4.42L206.43 4.42L206.43 13.02L205.73 13.02L205.73 4.42L202.36 4.42L202.36 3.78L209.80 3.78Z"></path></g></svg>